<?xml version="1.0" standalone="no"?>
<!DOCTYPE svg PUBLIC "-//W3C//DTD SVG 20010904//EN"
 "http://www.w3.org/TR/2001/REC-SVG-20010904/DTD/svg10.dtd">
<svg version="1.0" xmlns="http://www.w3.org/2000/svg"
 width="601.000000pt" height="601.000000pt" viewBox="0 0 601.000000 601.000000"
 preserveAspectRatio="xMidYMid meet">
<metadata>
Created by potrace 1.11, written by Peter Selinger 2001-2013
</metadata>
<g transform="translate(0.000000,601.000000) scale(0.100000,-0.100000)"
fill="#000000" stroke="none">
<path d="M0 3005 l0 -2995 3000 0 3000 0 0 2995 0 2995 -3000 0 -3000 0 0
-2995z m3505 1951 c484 -82 767 -285 884 -633 54 -160 64 -418 22 -578 -81
-311 -305 -521 -663 -619 l-78 -22 107 -18 c397 -67 671 -241 803 -509 75
-153 101 -283 94 -467 -17 -437 -215 -748 -595 -932 -123 -60 -232 -94 -404
-125 l-140 -26 -967 -4 -968 -5 0 1982 0 1981 903 -4 c791 -3 914 -6 1002 -21z"/>
<path d="M2470 3870 l0 -466 358 2 c290 1 370 4 425 18 212 50 308 189 308
446 -1 251 -91 385 -296 441 -75 20 -104 22 -437 23 l-358 2 0 -466z"/>
<path d="M2470 2214 l0 -545 453 3 c491 4 504 6 627 65 71 34 159 123 192 193
62 131 76 371 29 502 -44 127 -135 223 -257 272 -122 50 -193 56 -635 56
l-409 0 0 -546z"/>
</g>
</svg>
